# xmcd CD database file
#
# Track frame offsets:
#	150
#	25590
#	55487
#	81940
#	110462
#	143350
#	177547
#	200915
#	231380
#	254395
#	277307
#
# Disc length: 4101 seconds
#
# Revision: 0
# Processed by: cddbd v1.5.1PL0 Copyright (c) Steve Scherf et al.
# Submitted via: CDex 1.51
#
DISCID=a510030b
DTITLE=Omnibas - Rare Tracks - The Other Side Of Blue Note 4000 Series Disc2
DYEAR=1900
DGENRE=Jazz
TTITLE0=Ko-Kee'
TTITLE1=You're Driving Me Crazy
TTITLE2=Way Down Upon The Swanee River
TTITLE3=Tin Tin Deo
TTITLE4=Open Sesame [alt. take]
TTITLE5=Good Old Soul [alt. take]
TTITLE6=True Blue [alt. take]
TTITLE7=Rastus [alt. take]
TTITLE8=Melanie [alt. take]
TTITLE9=Diamond Stud
TTITLE10=When Your Lover Has Gone
EXTD=
EXTT0=
EXTT1=
EXTT2=
EXTT3=
EXTT4=
EXTT5=
EXTT6=
EXTT7=
EXTT8=
EXTT9=
EXTT10=
PLAYORDER=
